# xmcd
#
# Track frame offsets:
#	150
#	22427
#	42625
#	62990
#	83767
#	109005
#	133757
#	164365
#	183425
#	210090
#
# Disc length: 3185 seconds
#
# Revision: 131075
# Processed by: cddbd v1.5.2PL0 Copyright (c) Steve Scherf et al.
# Submitted via: EZCDAudioConverter 8.0.2.1
#
DISCID=8d0c6f0a
DTITLE=Various Artist - Hazard
DYEAR=1995
DGENRE=Contemporary Pop
TTITLE0=Trung Hành - Let Me Get To Know You
TTITLE1=Lyn - Holding Out For Hero
TTITLE2=Công Thành - Hazard
TTITLE3=Lynda Trang Đài - Hoang vắng
TTITLE4=Tuấn Dũng - Yesterday When I Was Young
TTITLE5=Minh Xuân - Marcia Baila
TTITLE6=Thái Hiền - Unchained Melody
TTITLE7=Thúy Vi - Ebony Eye
TTITLE8=Lynda Trang Đài - Boulevard
TTITLE9=Thái Thảo - Come Back To Me
EXTD=
EXTT0=
EXTT1=
EXTT2=
EXTT3=
EXTT4=
EXTT5=
EXTT6=
EXTT7=
EXTT8=
EXTT9=
PLAYORDER=
